<svg width="71" height="71" viewBox="0 0 71 71" fill="none" xmlns="http://www.w3.org/2000/svg">
<path d="M56.2083 8.875H14.7917C11.524 8.875 8.875 11.524 8.875 14.7917V56.2083C8.875 59.476 11.524 62.125 14.7917 62.125H56.2083C59.476 62.125 62.125 59.476 62.125 56.2083V14.7917C62.125 11.524 59.476 8.875 56.2083 8.875Z" stroke="white" stroke-width="3"/>
<path d="M25.1455 29.5833C27.5963 29.5833 29.583 27.5966 29.583 25.1458C29.583 22.695 27.5963 20.7083 25.1455 20.7083C22.6947 20.7083 20.708 22.695 20.708 25.1458C20.708 27.5966 22.6947 29.5833 25.1455 29.5833Z" stroke="white" stroke-width="3"/>
<path d="M62.125 44.375L47.3333 29.5833L26.625 50.2916" stroke="white" stroke-width="3" stroke-linecap="round" stroke-linejoin="round"/>
<path d="M2.5 68.5L68.5 2.5" stroke="white" stroke-width="3" stroke-linecap="round"/>
</svg>
